<svg xmlns="http://www.w3.org/2000/svg" xmlns:xlink="http://www.w3.org/1999/xlink" contentStyleType="text/css" data-diagram-type="SEQUENCE" height="577px" preserveAspectRatio="none" style="width:1116px;height:577px;background:#FFFFFF;" version="1.1" viewBox="0 0 1116 577" width="1116px" zoomAndPan="magnify"><defs/><g><rect fill="none" height="206.7344" style="stroke:#000000;stroke-width:1.5;" width="985.3291" x="10" y="98.2969"/><g><title>User</title><rect fill="#000000" fill-opacity="0.00000" height="415.5313" width="8" x="34.9551" y="81.2969"/><line style="stroke:#181818;stroke-width:0.5;stroke-dasharray:5,5;" x1="38" x2="38" y1="81.2969" y2="496.8281"/></g><g><title>Telegram</title><rect fill="#000000" fill-opacity="0.00000" height="415.5313" width="8" x="273.0234" y="81.2969"/><line style="stroke:#181818;stroke-width:0.5;stroke-dasharray:5,5;" x1="276.7598" x2="276.7598" y1="81.2969" y2="496.8281"/></g><g><title>Python App</title><rect fill="#000000" fill-opacity="0.00000" height="415.5313" width="8" x="548.5112" y="81.2969"/><line style="stroke:#181818;stroke-width:0.5;stroke-dasharray:5,5;" x1="552.3467" x2="552.3467" y1="81.2969" y2="496.8281"/></g><g><title>OpenAI .Whisper.GPT.</title><rect fill="#000000" fill-opacity="0.00000" height="415.5313" width="8" x="896.2354" y="81.2969"/><line style="stroke:#181818;stroke-width:0.5;stroke-dasharray:5,5;" x1="900.1416" x2="900.1416" y1="81.2969" y2="496.8281"/></g><g><title>Google Sheets</title><rect fill="#000000" fill-opacity="0.00000" height="415.5313" width="8" x="1049.1235" y="81.2969"/><line style="stroke:#181818;stroke-width:0.5;stroke-dasharray:5,5;" x1="1052.3291" x2="1052.3291" y1="81.2969" y2="496.8281"/></g><g class="participant participant-head" data-participant="User"><text fill="#000000" font-family="sans-serif" font-size="14" lengthAdjust="spacing" textLength="31.9102" x="20" y="77.9951">User</text><ellipse cx="38.9551" cy="13.5" fill="#E2E2F0" rx="8" ry="8" style="stroke:#181818;stroke-width:0.5;"/><path d="M38.9551,21.5 L38.9551,48.5 M25.9551,29.5 L51.9551,29.5 M38.9551,48.5 L25.9551,63.5 M38.9551,48.5 L51.9551,63.5" fill="none" style="stroke:#181818;stroke-width:0.5;"/></g><g class="participant participant-tail" data-participant="User"><text fill="#000000" font-family="sans-serif" font-size="14" lengthAdjust="spacing" textLength="31.9102" x="20" y="508.8232">User</text><ellipse cx="38.9551" cy="520.625" fill="#E2E2F0" rx="8" ry="8" style="stroke:#181818;stroke-width:0.5;"/><path d="M38.9551,528.625 L38.9551,555.625 M25.9551,536.625 L51.9551,536.625 M38.9551,555.625 L25.9551,570.625 M38.9551,555.625 L51.9551,570.625" fill="none" style="stroke:#181818;stroke-width:0.5;"/></g><g class="participant participant-head" data-participant="Telegram"><rect fill="#E2E2F0" height="30.2969" rx="2.5" ry="2.5" style="stroke:#181818;stroke-width:0.5;" width="80.5273" x="236.7598" y="50"/><text fill="#000000" font-family="sans-serif" font-size="14" lengthAdjust="spacing" textLength="66.5273" x="243.7598" y="69.9951">Telegram</text></g><g class="participant participant-tail" data-participant="Telegram"><rect fill="#E2E2F0" height="30.2969" rx="2.5" ry="2.5" style="stroke:#181818;stroke-width:0.5;" width="80.5273" x="236.7598" y="495.8281"/><text fill="#000000" font-family="sans-serif" font-size="14" lengthAdjust="spacing" textLength="66.5273" x="243.7598" y="515.8232">Telegram</text></g><g class="participant participant-head" data-participant="App"><rect fill="#E2E2F0" height="30.2969" rx="2.5" ry="2.5" style="stroke:#181818;stroke-width:0.5;" width="94.3291" x="505.3467" y="50"/><text fill="#000000" font-family="sans-serif" font-size="14" lengthAdjust="spacing" textLength="80.3291" x="512.3467" y="69.9951">Python App</text></g><g class="participant participant-tail" data-participant="App"><rect fill="#E2E2F0" height="30.2969" rx="2.5" ry="2.5" style="stroke:#181818;stroke-width:0.5;" width="94.3291" x="505.3467" y="495.8281"/><text fill="#000000" font-family="sans-serif" font-size="14" lengthAdjust="spacing" textLength="80.3291" x="512.3467" y="515.8232">Python App</text></g><g class="participant participant-head" data-participant="AI"><rect fill="#E2E2F0" height="30.2969" rx="2.5" ry="2.5" style="stroke:#181818;stroke-width:0.5;" width="170.1875" x="815.1416" y="50"/><text fill="#000000" font-family="sans-serif" font-size="14" lengthAdjust="spacing" textLength="156.1875" x="822.1416" y="69.9951">OpenAI (Whisper/GPT)</text></g><g class="participant participant-tail" data-participant="AI"><rect fill="#E2E2F0" height="30.2969" rx="2.5" ry="2.5" style="stroke:#181818;stroke-width:0.5;" width="170.1875" x="815.1416" y="495.8281"/><text fill="#000000" font-family="sans-serif" font-size="14" lengthAdjust="spacing" textLength="156.1875" x="822.1416" y="515.8232">OpenAI (Whisper/GPT)</text></g><g class="participant participant-head" data-participant="DB"><rect fill="#E2E2F0" height="30.2969" rx="2.5" ry="2.5" style="stroke:#181818;stroke-width:0.5;" width="115.5889" x="995.3291" y="50"/><text fill="#000000" font-family="sans-serif" font-size="14" lengthAdjust="spacing" textLength="101.5889" x="1002.3291" y="69.9951">Google Sheets</text></g><g class="participant participant-tail" data-participant="DB"><rect fill="#E2E2F0" height="30.2969" rx="2.5" ry="2.5" style="stroke:#181818;stroke-width:0.5;" width="115.5889" x="995.3291" y="495.8281"/><text fill="#000000" font-family="sans-serif" font-size="14" lengthAdjust="spacing" textLength="101.5889" x="1002.3291" y="515.8232">Google Sheets</text></g><path d="M10,98.2969 L74.4429,98.2969 L74.4429,105.4297 L64.4429,115.4297 L10,115.4297 L10,98.2969" fill="#EEEEEE" style="stroke:#000000;stroke-width:1.5;"/><rect fill="none" height="206.7344" style="stroke:#000000;stroke-width:1.5;" width="985.3291" x="10" y="98.2969"/><text fill="#000000" font-family="sans-serif" font-size="13" font-weight="bold" lengthAdjust="spacing" textLength="19.4429" x="25" y="111.3638">alt</text><text fill="#000000" font-family="sans-serif" font-size="11" font-weight="bold" lengthAdjust="spacing" textLength="113.9048" x="89.4429" y="110.5073">[Voice Note Input]</text><g class="message" data-participant-1="User" data-participant-2="Telegram"><polygon fill="#181818" points="265.0234,132.5625,275.0234,136.5625,265.0234,140.5625,269.0234,136.5625" style="stroke:#181818;stroke-width:1;"/><line style="stroke:#181818;stroke-width:1;" x1="38.9551" x2="271.0234" y1="136.5625" y2="136.5625"/><text fill="#000000" font-family="sans-serif" font-size="13" lengthAdjust="spacing" textLength="123.4048" x="45.9551" y="131.4966">Sends voice note &#127897;&#65039;</text></g><g class="message" data-participant-1="Telegram" data-participant-2="App"><polygon fill="#181818" points="540.5112,161.6953,550.5112,165.6953,540.5112,169.6953,544.5112,165.6953" style="stroke:#181818;stroke-width:1;"/><line style="stroke:#181818;stroke-width:1;" x1="277.0234" x2="546.5112" y1="165.6953" y2="165.6953"/><text fill="#000000" font-family="sans-serif" font-size="13" lengthAdjust="spacing" textLength="123.8301" x="284.0234" y="160.6294">Forwards audio file</text></g><g class="message" data-participant-1="App" data-participant-2="AI"><polygon fill="#181818" points="888.2354,190.8281,898.2354,194.8281,888.2354,198.8281,892.2354,194.8281" style="stroke:#181818;stroke-width:1;"/><line style="stroke:#181818;stroke-width:1;" x1="552.5112" x2="894.2354" y1="194.8281" y2="194.8281"/><text fill="#000000" font-family="sans-serif" font-size="13" lengthAdjust="spacing" textLength="165.9912" x="559.5112" y="189.7622">Sends audio to Whisper &#128483;&#65039;</text></g><g class="message" data-participant-1="AI" data-participant-2="App"><polygon fill="#181818" points="563.5112,219.9609,553.5112,223.9609,563.5112,227.9609,559.5112,223.9609" style="stroke:#181818;stroke-width:1;"/><line style="stroke:#181818;stroke-width:1;stroke-dasharray:2,2;" x1="557.5112" x2="899.2354" y1="223.9609" y2="223.9609"/><text fill="#000000" font-family="sans-serif" font-size="13" lengthAdjust="spacing" textLength="170.8345" x="569.5112" y="218.895">Returns transcribed text &#128221;</text></g><line style="stroke:#000000;stroke-width:1;stroke-dasharray:2,2;" x1="10" x2="995.3291" y1="232.9609" y2="232.9609"/><text fill="#000000" font-family="sans-serif" font-size="11" font-weight="bold" lengthAdjust="spacing" textLength="74.0889" x="15" y="243.1714">[Text Input]</text><g class="message" data-participant-1="User" data-participant-2="Telegram"><polygon fill="#181818" points="265.0234,263.8984,275.0234,267.8984,265.0234,271.8984,269.0234,267.8984" style="stroke:#181818;stroke-width:1;"/><line style="stroke:#181818;stroke-width:1;" x1="38.9551" x2="271.0234" y1="267.8984" y2="267.8984"/><text fill="#000000" font-family="sans-serif" font-size="13" lengthAdjust="spacing" textLength="144.022" x="45.9551" y="262.8325">Sends text message &#128172;</text></g><g class="message" data-participant-1="Telegram" data-participant-2="App"><polygon fill="#181818" points="540.5112,293.0313,550.5112,297.0313,540.5112,301.0313,544.5112,297.0313" style="stroke:#181818;stroke-width:1;"/><line style="stroke:#181818;stroke-width:1;" x1="277.0234" x2="546.5112" y1="297.0313" y2="297.0313"/><text fill="#000000" font-family="sans-serif" font-size="13" lengthAdjust="spacing" textLength="89.7622" x="284.0234" y="291.9653">Forwards text</text></g><g class="message" data-participant-1="App" data-participant-2="AI"><polygon fill="#181818" points="888.2354,329.1641,898.2354,333.1641,888.2354,337.1641,892.2354,333.1641" style="stroke:#181818;stroke-width:1;"/><line style="stroke:#181818;stroke-width:1;" x1="552.5112" x2="894.2354" y1="333.1641" y2="333.1641"/><text fill="#000000" font-family="sans-serif" font-size="13" lengthAdjust="spacing" textLength="308.8452" x="559.5112" y="328.0981">Sends raw text to GPT Chat Completion Model&#129302;</text></g><g class="message" data-participant-1="AI" data-participant-2="App"><polygon fill="#181818" points="563.5112,358.2969,553.5112,362.2969,563.5112,366.2969,559.5112,362.2969" style="stroke:#181818;stroke-width:1;"/><line style="stroke:#181818;stroke-width:1;stroke-dasharray:2,2;" x1="557.5112" x2="899.2354" y1="362.2969" y2="362.2969"/><text fill="#000000" font-family="sans-serif" font-size="13" lengthAdjust="spacing" textLength="323.7241" x="569.5112" y="357.231">Returns details (Exercises, Sets, Reps, Weights) &#128202;</text></g><g class="message" data-participant-1="App" data-participant-2="DB"><polygon fill="#181818" points="1041.1235,387.4297,1051.1235,391.4297,1041.1235,395.4297,1045.1235,391.4297" style="stroke:#181818;stroke-width:1;"/><line style="stroke:#181818;stroke-width:1;" x1="552.5112" x2="1047.1235" y1="391.4297" y2="391.4297"/><text fill="#000000" font-family="sans-serif" font-size="13" lengthAdjust="spacing" textLength="248.0981" x="559.5112" y="386.3638">Logs workout data to Google Sheets &#128200;</text></g><g class="message" data-participant-1="DB" data-participant-2="App"><polygon fill="#181818" points="563.5112,416.5625,553.5112,420.5625,563.5112,424.5625,559.5112,420.5625" style="stroke:#181818;stroke-width:1;"/><line style="stroke:#181818;stroke-width:1;stroke-dasharray:2,2;" x1="557.5112" x2="1052.1235" y1="420.5625" y2="420.5625"/><text fill="#000000" font-family="sans-serif" font-size="13" lengthAdjust="spacing" textLength="152.0391" x="569.5112" y="415.4966">Confirms data logged &#9989;</text></g><g class="message" data-participant-1="App" data-participant-2="Telegram"><polygon fill="#181818" points="288.0234,445.6953,278.0234,449.6953,288.0234,453.6953,284.0234,449.6953" style="stroke:#181818;stroke-width:1;"/><line style="stroke:#181818;stroke-width:1;" x1="282.0234" x2="551.5112" y1="449.6953" y2="449.6953"/><text fill="#000000" font-family="sans-serif" font-size="13" lengthAdjust="spacing" textLength="251.4878" x="294.0234" y="444.6294">Sends confirmation message to User &#128233;</text></g><g class="message" data-participant-1="Telegram" data-participant-2="User"><polygon fill="#181818" points="49.9551,474.8281,39.9551,478.8281,49.9551,482.8281,45.9551,478.8281" style="stroke:#181818;stroke-width:1;"/><line style="stroke:#181818;stroke-width:1;" x1="43.9551" x2="276.0234" y1="478.8281" y2="478.8281"/><text fill="#000000" font-family="sans-serif" font-size="13" lengthAdjust="spacing" textLength="214.0684" x="55.9551" y="473.7622">Delivers confirmation message &#9989;</text></g><!--SRC=[ZP7FIWCn4CRlUOh1KmkAznw4sgeK_5FyUuwxusumJK8ojVe0WdXGK504nODU11_0v_45z16SP6srLD4zP4do-xwPRo8piXws0dhXf2ULAISDmIPgBBpiZHrETO-ej0QQpas13F4_Vh_cq3GxKDifLN3ePvUwc_MAx8o3IzOM6c6ZHAIGYFQy458JR5kL8QnQGkWOroS1_CNsO6Pkr1KqO0DD7k0WqIRIx_TdDsylvuaVSQpX9XbVj7uWFIjaFrSMzfJ6HCRR27L6bXL05Zv3iF7rmz2OkPcHvpfItvi0vAK9cLUxc0FX8R7YyawW3iYDyFOVEPAiXo788YQvUFuhHXG8beh905uEAZ_Em0y0hL8Ij6pFQIJ5hxTYSzJlzuzNuiSqEP9KEa1juH1zfWA6QJOcNjVHyRg3gYWfr6FAqs7vzZmxBDiYmC3wVTido2N9rC7tbuwQ4y7mLzcMDNlAzq8bqBOeU8gljyT3vubHPPL0fYp3aN6XD5lsVnBVnvPE6z16hGxG_wBcSXy0]--></g></svg>